<svg width="32" height="32" viewBox="0 0 32 32" fill="none" xmlns="http://www.w3.org/2000/svg">
<g clip-path="url(#clip0_705_354)">
<path d="M25.3333 0H6.66667C2.98533 0 0 2.98533 0 6.66667V25.3333C0 29.0147 2.98533 32 6.66667 32H25.3333C29.016 32 32 29.0147 32 25.3333V6.66667C32 2.98533 29.016 0 25.3333 0ZM19.3787 26.12C18.8387 26.224 18.6667 25.892 18.6667 25.608V22.6813C18.6667 21.6853 18.3173 21.0373 17.9333 20.7067C20.3093 20.4427 22.8053 19.54 22.8053 15.444C22.8053 14.2787 22.3893 13.3267 21.708 12.5813C21.8173 12.312 22.1827 11.2267 21.6027 9.75867C21.6027 9.75867 20.708 9.472 18.672 10.852C17.8187 10.612 16.9067 10.496 16 10.4907C15.0933 10.4947 14.1813 10.612 13.3293 10.8493C11.292 9.46933 10.396 9.756 10.396 9.756C9.81733 11.2253 10.1827 12.3093 10.2933 12.58C9.61067 13.3267 9.19467 14.2773 9.19467 15.4427C9.19467 19.528 11.684 20.444 14.0547 20.7147C13.7493 20.9813 13.4733 21.4507 13.3773 22.1413C12.768 22.4133 11.2253 22.884 10.2733 21.2533C10.2733 21.2533 9.70933 20.2293 8.63733 20.1533C8.63733 20.1533 7.59733 20.14 8.564 20.8027C8.564 20.8027 9.264 21.1307 9.74933 22.3627C9.74933 22.3627 10.3667 24.2667 13.3333 23.6213V25.6067C13.3333 25.888 13.1613 26.2187 12.6293 26.12C8.38933 24.7107 5.33333 20.712 5.33333 16C5.33333 10.108 10.1093 5.33333 16 5.33333C21.8907 5.33333 26.6667 10.108 26.6667 16C26.6667 20.7107 23.6147 24.708 19.3787 26.12V26.12Z" fill="#3E3C3C"/>
</g>
<defs>
<clipPath id="clip0_705_354">
<rect width="32" height="32" fill="white"/>
</clipPath>
</defs>
</svg>
